<svg width="159" height="44" viewBox="0 0 159 44" fill="none" xmlns="http://www.w3.org/2000/svg">
<path d="M60.5831 44H34.3565L8.125 0H34.3565L60.5831 44Z" fill="#6A00FF"/>
<path d="M15.7964 44C24.5205 44 31.5928 36.9277 31.5928 28.2036C31.5928 19.4794 24.5205 12.4071 15.7964 12.4071C7.0723 12.4071 0 19.4794 0 28.2036C0 36.9277 7.0723 44 15.7964 44Z" fill="#00E6C3"/>
<path d="M87.6672 28.1833H75.4567L73.1266 33.822H66.8877L78.6089 7.51987H84.6208L96.3824 33.822H89.9922L87.6621 28.1833H87.6672ZM85.7506 23.5634L81.5796 13.4914L77.4086 23.5634H85.7506Z" fill="white"/>
<path d="M112.971 14.601C114.509 15.4635 115.72 16.679 116.597 18.2475C117.475 19.811 117.914 21.6368 117.914 23.7147C117.914 25.7927 117.475 27.6185 116.597 29.182C115.72 30.7455 114.514 31.961 112.971 32.8284C111.428 33.6959 109.723 34.1246 107.842 34.1246C105.259 34.1246 103.232 33.3126 101.754 31.6836V41.115H95.8936V13.6074H101.492V15.9376C102.944 14.1824 105.063 13.3099 107.842 13.3099C109.723 13.3099 111.433 13.7436 112.971 14.6061V14.601ZM110.53 27.7899C111.493 26.7762 111.977 25.4144 111.977 23.7147C111.977 22.0151 111.493 20.6533 110.53 19.6395C109.567 18.6258 108.331 18.1164 106.828 18.1164C105.325 18.1164 104.089 18.6258 103.126 19.6395C102.163 20.6533 101.679 22.0151 101.679 23.7147C101.679 25.4144 102.163 26.7762 103.126 27.7899C104.089 28.8037 105.325 29.3131 106.828 29.3131C108.331 29.3131 109.567 28.8037 110.53 27.7899Z" fill="white"/>
<path d="M138.693 25.369H123.401C123.679 26.6198 124.329 27.6134 125.353 28.3397C126.382 29.066 127.658 29.4291 129.186 29.4291C130.24 29.4291 131.173 29.2727 131.985 28.96C132.797 28.6473 133.559 28.1531 134.26 27.4772L137.377 30.8615C135.47 33.0403 132.691 34.1297 129.035 34.1297C126.755 34.1297 124.738 33.6858 122.983 32.7982C121.227 31.9105 119.876 30.6748 118.922 29.0962C117.969 27.5176 117.495 25.7271 117.495 23.7248C117.495 21.7225 117.964 19.9623 118.902 18.3686C119.84 16.7798 121.132 15.5391 122.771 14.6464C124.41 13.7588 126.246 13.3099 128.273 13.3099C130.301 13.3099 132.041 13.7386 133.645 14.5859C135.248 15.4383 136.504 16.6588 137.422 18.2475C138.335 19.8413 138.794 21.6872 138.794 23.7904C138.794 23.866 138.754 24.3906 138.683 25.369H138.693ZM124.98 18.8679C124.077 19.6194 123.527 20.6483 123.325 21.9495H133.281C133.08 20.6735 132.53 19.6496 131.627 18.8881C130.724 18.1265 129.625 17.7432 128.319 17.7432C127.012 17.7432 125.878 18.1214 124.975 18.8729L124.98 18.8679Z" fill="white"/>
<path d="M152.18 33.822L147.746 27.6235L143.162 33.822H136.771L144.549 23.6391L137.034 13.6075H143.611L147.893 19.5084L152.291 13.6075H158.529L151.014 23.4878L158.832 33.822H152.18Z" fill="white"/>
</svg>
