<svg width="34" height="34" viewBox="0 0 34 34" fill="none" xmlns="http://www.w3.org/2000/svg">
<path d="M25.5002 1.77083H8.50016C6.71617 1.77308 5.00588 2.48276 3.74441 3.74424C2.48293 5.00572 1.77325 6.716 1.771 8.5V25.5C1.77325 27.284 2.48293 28.9943 3.74441 30.2558C5.00588 31.5172 6.71617 32.2269 8.50016 32.2292H25.5002C27.2842 32.2269 28.9944 31.5172 30.2559 30.2558C31.5174 28.9943 32.2271 27.284 32.2293 25.5V8.5C32.2271 6.716 31.5174 5.00572 30.2559 3.74424C28.9944 2.48276 27.2842 1.77308 25.5002 1.77083ZM23.0097 21.0077C23.145 21.1384 23.2529 21.2948 23.3271 21.4676C23.4014 21.6404 23.4405 21.8263 23.4421 22.0144C23.4437 22.2025 23.4079 22.3891 23.3367 22.5632C23.2654 22.7373 23.1602 22.8955 23.0272 23.0285C22.8942 23.1615 22.736 23.2667 22.5619 23.3379C22.3878 23.4091 22.2013 23.445 22.0132 23.4433C21.8251 23.4417 21.6392 23.4026 21.4663 23.3284C21.2935 23.2541 21.1372 23.1462 21.0065 23.0109L17.0002 19.0032L12.9924 23.0109C12.8617 23.1462 12.7054 23.2541 12.5326 23.3284C12.3597 23.4026 12.1738 23.4417 11.9857 23.4433C11.7976 23.445 11.6111 23.4091 11.437 23.3379C11.2629 23.2667 11.1047 23.1615 10.9717 23.0285C10.8387 22.8955 10.7335 22.7373 10.6622 22.5632C10.591 22.3891 10.5552 22.2025 10.5568 22.0144C10.5584 21.8263 10.5975 21.6404 10.6718 21.4676C10.746 21.2948 10.8539 21.1384 10.9892 21.0077L14.997 17L10.9892 12.9922C10.8539 12.8616 10.746 12.7052 10.6718 12.5324C10.5975 12.3596 10.5584 12.1737 10.5568 11.9856C10.5552 11.7975 10.591 11.6109 10.6622 11.4368C10.7335 11.2627 10.8387 11.1045 10.9717 10.9715C11.1047 10.8385 11.2629 10.7333 11.437 10.6621C11.6111 10.5908 11.7976 10.555 11.9857 10.5566C12.1738 10.5583 12.3597 10.5974 12.5326 10.6716C12.7054 10.7458 12.8617 10.8538 12.9924 10.9891L17.0002 14.9968L21.0065 10.9891C21.1372 10.8538 21.2935 10.7458 21.4663 10.6716C21.6392 10.5974 21.8251 10.5583 22.0132 10.5566C22.2013 10.555 22.3878 10.5908 22.5619 10.6621C22.736 10.7333 22.8942 10.8385 23.0272 10.9715C23.1602 11.1045 23.2654 11.2627 23.3367 11.4368C23.4079 11.6109 23.4437 11.7975 23.4421 11.9856C23.4405 12.1737 23.4014 12.3596 23.3271 12.5324C23.2529 12.7052 23.145 12.8616 23.0097 12.9922L19.0033 17L23.0097 21.0077Z" fill="url(#paint0_linear_77_185)"/>
<defs>
<linearGradient id="paint0_linear_77_185" x1="4.69201" y1="-2.96807" x2="40.3694" y2="19.0232" gradientUnits="userSpaceOnUse">
<stop stop-color="#6A00FF"/>
<stop offset="1" stop-color="#00E6C3"/>
</linearGradient>
</defs>
</svg>
