<svg width="614" height="233" viewBox="0 0 614 233" fill="none" xmlns="http://www.w3.org/2000/svg">
<path opacity="0.5" d="M441.093 18.3271H495.606V232.745H441.093V18.3271Z" fill="url(#paint0_linear_79_768)"/>
<path opacity="0.5" d="M146 18.3271H200.513V232.745H146V18.3271Z" fill="url(#paint1_linear_79_768)"/>
<path opacity="0.2" d="M5.14253 137.045C-5.61118 138.72 -3.33729 140.073 -10 143.404V232.745H353.421V73.1431C353.421 73.1431 343.404 94.9633 335.552 94.0398C323.398 92.6101 328.684 81.7078 316.473 82.5315C307.394 83.1439 305.873 112.036 292.851 111.302C276.4 110.375 282.861 96.0112 266.503 94.0398C255.014 92.6554 255.356 71.6261 243.789 71.326C225.919 70.8625 223.404 53.6692 208.052 52.2465C171.821 48.8888 195.62 13.3989 168.921 15.7898C141.425 18.2521 172.803 86.2269 137.488 82.5315C128.594 81.6008 124.844 73.4342 115.986 74.6574C105.045 76.168 105.949 90.7955 95.392 94.0398C81.5922 98.2808 74.3707 79.4745 60.2613 82.5315C46.7454 85.4599 47.44 105.813 33.6105 105.851C14.9864 105.902 23.5446 134.177 5.14253 137.045Z" fill="url(#paint2_linear_79_768)"/>
<path opacity="0.2" d="M570.198 1.44446C578.682 -1.38342 598.821 29.5447 602.476 37.7066C645.114 132.945 611.242 127.863 611.242 232.746H353.421V73.1435C353.421 73.1435 363.9 58.5549 371.751 57.6314C383.906 56.2017 390.716 62.2924 397.653 72.3754C405.623 83.9605 407.615 89.9089 419.57 92.2998C436.021 91.3728 424.662 92.7865 435.908 80.7437C443.722 72.3754 449.204 46.4961 459.02 38.9023C480.14 22.5643 480.937 28.3589 490.899 52.8493C500.463 76.3601 498.072 93.0966 528.357 75.9616C542.87 67.7501 547.484 9.01573 570.198 1.44446Z" fill="url(#paint3_linear_79_768)"/>
<path d="M-10 143.404C-3.33729 140.073 -5.61118 138.72 5.14253 137.045C23.5446 134.177 14.9864 105.902 33.6105 105.851C47.44 105.813 46.7454 85.4599 60.2613 82.5315C74.3707 79.4745 81.5922 98.2808 95.392 94.0398C105.949 90.7954 105.045 76.168 115.986 74.6574C124.844 73.4342 128.594 81.6008 137.488 82.5315C172.803 86.2268 142.621 17.7822 168.682 16.255C194.743 14.7278 171.821 48.8888 208.052 52.2464C223.405 53.6691 225.919 70.8624 243.789 71.326C255.356 71.6261 255.015 92.6554 266.503 94.0398C282.861 96.0112 276.4 110.375 292.851 111.302C305.873 112.036 307.394 83.1439 316.473 82.5315C328.684 81.7078 323.398 92.6101 335.553 94.0398C343.404 94.9633 353.421 73.1431 353.421 73.1431C360.859 60.5944 380.518 43.3291 399.645 74.6574C418.773 105.986 433.384 89.1115 438.299 76.7584C446.534 56.7693 466.645 15.7898 482.132 34.5187C497.62 53.2476 491.696 83.3285 512.417 83.3285C527.161 83.3285 540.311 63.6083 549.078 32.1278C557.845 0.64727 580.16 -30.4348 613.633 69.5856" stroke="url(#paint4_linear_79_768)" stroke-width="3.02851" stroke-linecap="round"/>
<g filter="url(#filter0_d_79_768)">
<circle cx="468.349" cy="54.6692" r="12.114" fill="#00E6C3"/>
<circle cx="468.349" cy="54.6692" r="8.78267" stroke="url(#paint5_linear_79_768)" stroke-width="6.66271"/>
</g>
<g filter="url(#filter1_d_79_768)">
<circle cx="171.257" cy="32.6692" r="12.114" fill="#00E6C3"/>
<circle cx="171.257" cy="32.6692" r="8.78267" stroke="url(#paint6_linear_79_768)" stroke-width="6.66271"/>
</g>
<path d="M470.539 203.279C470.539 203.563 470.318 203.762 469.974 203.762L465.417 203.765C465.069 203.765 464.853 203.567 464.853 203.279C464.853 203.13 464.917 203.009 464.999 202.839L467.163 198.36C467.32 198.044 467.479 197.927 467.696 197.927C467.912 197.927 468.072 198.044 468.225 198.36L470.393 202.839C470.475 203.006 470.539 203.126 470.539 203.279Z" fill="#00E6C3"/>
<path d="M175.446 203.279C175.446 203.563 175.226 203.762 174.881 203.762L170.325 203.765C169.977 203.765 169.76 203.567 169.76 203.279C169.76 203.13 169.824 203.009 169.906 202.839L172.071 198.36C172.227 198.044 172.386 197.927 172.603 197.927C172.819 197.927 172.979 198.044 173.132 198.36L175.3 202.839C175.382 203.006 175.446 203.126 175.446 203.279Z" fill="#00E6C3"/>
<path d="M470.539 162.091C470.539 162.375 470.318 162.574 469.974 162.574L465.417 162.578C465.069 162.578 464.853 162.379 464.853 162.091C464.853 161.942 464.917 161.822 464.999 161.651L467.163 157.172C467.32 156.857 467.479 156.739 467.696 156.739C467.912 156.739 468.072 156.857 468.225 157.172L470.393 161.651C470.475 161.818 470.539 161.939 470.539 162.091Z" fill="#00E6C3"/>
<path d="M175.446 162.091C175.446 162.375 175.226 162.574 174.881 162.574L170.325 162.578C169.977 162.578 169.76 162.379 169.76 162.091C169.76 161.942 169.824 161.822 169.906 161.651L172.071 157.172C172.227 156.857 172.386 156.739 172.603 156.739C172.819 156.739 172.979 156.857 173.132 157.172L175.3 161.651C175.382 161.818 175.446 161.939 175.446 162.091Z" fill="#00E6C3"/>
<path d="M470.539 120.904C470.539 121.188 470.318 121.386 469.974 121.386L465.417 121.39C465.069 121.39 464.853 121.191 464.853 120.904C464.853 120.755 464.917 120.634 464.999 120.464L467.163 115.985C467.32 115.669 467.479 115.552 467.696 115.552C467.912 115.552 468.072 115.669 468.225 115.985L470.393 120.464C470.475 120.631 470.539 120.751 470.539 120.904Z" fill="#00E6C3"/>
<path d="M175.446 120.904C175.446 121.188 175.226 121.386 174.881 121.386L170.325 121.39C169.977 121.39 169.76 121.191 169.76 120.904C169.76 120.755 169.824 120.634 169.906 120.464L172.071 115.985C172.227 115.669 172.386 115.552 172.603 115.552C172.819 115.552 172.979 115.669 173.132 115.985L175.3 120.464C175.382 120.631 175.446 120.751 175.446 120.904Z" fill="#00E6C3"/>
<path d="M470.539 182.685C470.539 182.969 470.318 183.168 469.974 183.168L465.417 183.172C465.069 183.172 464.853 182.973 464.853 182.685C464.853 182.536 464.917 182.416 464.999 182.245L467.163 177.766C467.32 177.45 467.479 177.333 467.696 177.333C467.912 177.333 468.072 177.45 468.225 177.766L470.393 182.245C470.475 182.412 470.539 182.533 470.539 182.685Z" fill="#00E6C3"/>
<path d="M175.446 182.685C175.446 182.969 175.226 183.168 174.881 183.168L170.325 183.172C169.977 183.172 169.76 182.973 169.76 182.685C169.76 182.536 169.824 182.416 169.906 182.245L172.071 177.766C172.227 177.45 172.386 177.333 172.603 177.333C172.819 177.333 172.979 177.45 173.132 177.766L175.3 182.245C175.382 182.412 175.446 182.533 175.446 182.685Z" fill="#00E6C3"/>
<path d="M470.539 141.498C470.539 141.781 470.318 141.98 469.974 141.98L465.417 141.984C465.069 141.984 464.853 141.785 464.853 141.498C464.853 141.348 464.917 141.228 464.999 141.057L467.163 136.579C467.32 136.263 467.479 136.146 467.696 136.146C467.912 136.146 468.072 136.263 468.225 136.579L470.393 141.057C470.475 141.224 470.539 141.345 470.539 141.498Z" fill="#00E6C3"/>
<path d="M175.446 141.498C175.446 141.781 175.226 141.98 174.881 141.98L170.325 141.984C169.977 141.984 169.76 141.785 169.76 141.498C169.76 141.348 169.824 141.228 169.906 141.057L172.071 136.579C172.227 136.263 172.386 136.146 172.603 136.146C172.819 136.146 172.979 136.263 173.132 136.579L175.3 141.057C175.382 141.224 175.446 141.345 175.446 141.498Z" fill="#00E6C3"/>
<path d="M470.539 100.31C470.539 100.594 470.318 100.792 469.974 100.792L465.417 100.796C465.069 100.796 464.853 100.597 464.853 100.31C464.853 100.161 464.917 100.04 464.999 99.8697L467.163 95.3908C467.32 95.075 467.479 94.9579 467.696 94.9579C467.912 94.9579 468.072 95.075 468.225 95.3908L470.393 99.8697C470.475 100.037 470.539 100.157 470.539 100.31Z" fill="#00E6C3"/>
<path d="M175.446 100.31C175.446 100.594 175.226 100.792 174.881 100.792L170.325 100.796C169.977 100.796 169.76 100.597 169.76 100.31C169.76 100.161 169.824 100.04 169.906 99.8697L172.071 95.3908C172.227 95.075 172.386 94.9579 172.603 94.9579C172.819 94.9579 172.979 95.075 173.132 95.3908L175.3 99.8697C175.382 100.037 175.446 100.157 175.446 100.31Z" fill="#00E6C3"/>
<path d="M470.539 79.7161C470.539 80 470.318 80.1987 469.974 80.1987L465.417 80.2023C465.069 80.2023 464.853 80.0035 464.853 79.7161C464.853 79.567 464.917 79.4463 464.999 79.276L467.163 74.7971C467.32 74.4812 467.479 74.3641 467.696 74.3641C467.912 74.3641 468.072 74.4812 468.225 74.7971L470.393 79.276C470.475 79.4428 470.539 79.5634 470.539 79.7161Z" fill="#00E6C3"/>
<path d="M175.446 79.7161C175.446 80 175.226 80.1987 174.881 80.1987L170.325 80.2023C169.977 80.2023 169.76 80.0035 169.76 79.7161C169.76 79.567 169.824 79.4463 169.906 79.276L172.071 74.7971C172.227 74.4812 172.386 74.3641 172.603 74.3641C172.819 74.3641 172.979 74.4812 173.132 74.7971L175.3 79.276C175.382 79.4428 175.446 79.5634 175.446 79.7161Z" fill="#00E6C3"/>
<path d="M175.429 61.1382C175.429 61.4221 175.209 61.6208 174.865 61.6208L170.308 61.6244C169.96 61.6244 169.744 61.4256 169.744 61.1382C169.744 60.9891 169.807 60.8684 169.889 60.6981L172.054 56.2192C172.21 55.9034 172.37 55.7862 172.586 55.7862C172.803 55.7862 172.963 55.9034 173.115 56.2192L175.284 60.6981C175.365 60.8649 175.429 60.9856 175.429 61.1382Z" fill="#00E6C3"/>
<defs>
<filter id="filter0_d_79_768" x="441.093" y="30.4412" width="54.5136" height="54.5131" filterUnits="userSpaceOnUse" color-interpolation-filters="sRGB">
<feFlood flood-opacity="0" result="BackgroundImageFix"/>
<feColorMatrix in="SourceAlpha" type="matrix" values="0 0 0 0 0 0 0 0 0 0 0 0 0 0 0 0 0 0 127 0" result="hardAlpha"/>
<feOffset dy="3.02851"/>
<feGaussianBlur stdDeviation="7.57126"/>
<feColorMatrix type="matrix" values="0 0 0 0 0 0 0 0 0 0 0 0 0 0 0 0 0 0 0.1 0"/>
<feBlend mode="normal" in2="BackgroundImageFix" result="effect1_dropShadow_79_768"/>
<feBlend mode="normal" in="SourceGraphic" in2="effect1_dropShadow_79_768" result="shape"/>
</filter>
<filter id="filter1_d_79_768" x="144" y="8.44115" width="54.5136" height="54.5131" filterUnits="userSpaceOnUse" color-interpolation-filters="sRGB">
<feFlood flood-opacity="0" result="BackgroundImageFix"/>
<feColorMatrix in="SourceAlpha" type="matrix" values="0 0 0 0 0 0 0 0 0 0 0 0 0 0 0 0 0 0 127 0" result="hardAlpha"/>
<feOffset dy="3.02851"/>
<feGaussianBlur stdDeviation="7.57126"/>
<feColorMatrix type="matrix" values="0 0 0 0 0 0 0 0 0 0 0 0 0 0 0 0 0 0 0.1 0"/>
<feBlend mode="normal" in2="BackgroundImageFix" result="effect1_dropShadow_79_768"/>
<feBlend mode="normal" in="SourceGraphic" in2="effect1_dropShadow_79_768" result="shape"/>
</filter>
<linearGradient id="paint0_linear_79_768" x1="468.349" y1="55.6385" x2="468.349" y2="232.745" gradientUnits="userSpaceOnUse">
<stop stop-color="#0F0F0F"/>
<stop offset="0.445" stop-color="#006E5D"/>
<stop offset="1" stop-color="#0F0F0F"/>
</linearGradient>
<linearGradient id="paint1_linear_79_768" x1="173.257" y1="55.6385" x2="173.257" y2="232.745" gradientUnits="userSpaceOnUse">
<stop stop-color="#0F0F0F"/>
<stop offset="0.445" stop-color="#006E5D"/>
<stop offset="1" stop-color="#0F0F0F"/>
</linearGradient>
<linearGradient id="paint2_linear_79_768" x1="171.71" y1="-2.93912" x2="171.71" y2="232.745" gradientUnits="userSpaceOnUse">
<stop offset="0.735" stop-color="#4F46E5" stop-opacity="0.7"/>
<stop offset="1" stop-color="#0F0F0F"/>
</linearGradient>
<linearGradient id="paint3_linear_79_768" x1="535.131" y1="-2.93913" x2="535.131" y2="232.746" gradientUnits="userSpaceOnUse">
<stop offset="0.735" stop-color="#4F46E5" stop-opacity="0.7"/>
<stop offset="1" stop-color="#0F0F0F"/>
</linearGradient>
<linearGradient id="paint4_linear_79_768" x1="171.71" y1="-2.93913" x2="171.71" y2="143.404" gradientUnits="userSpaceOnUse">
<stop stop-color="#4F46E5"/>
<stop offset="1" stop-color="#ADA9FF"/>
</linearGradient>
<linearGradient id="paint5_linear_79_768" x1="468.349" y1="42.5552" x2="468.349" y2="66.7832" gradientUnits="userSpaceOnUse">
<stop stop-color="#4F46E5"/>
<stop offset="1" stop-color="#ADA9FF"/>
</linearGradient>
<linearGradient id="paint6_linear_79_768" x1="171.257" y1="20.5552" x2="171.257" y2="44.7832" gradientUnits="userSpaceOnUse">
<stop stop-color="#4F46E5"/>
<stop offset="1" stop-color="#ADA9FF"/>
</linearGradient>
</defs>
</svg>
