<svg width="159" height="44" viewBox="0 0 159 44" fill="none" xmlns="http://www.w3.org/2000/svg">
<path d="M60.5831 44H34.3565L8.125 0H34.3565L60.5831 44Z" fill="#6A00FF"/>
<path d="M15.7964 44.0001C24.5205 44.0001 31.5928 36.9278 31.5928 28.2036C31.5928 19.4795 24.5205 12.4072 15.7964 12.4072C7.0723 12.4072 0 19.4795 0 28.2036C0 36.9278 7.0723 44.0001 15.7964 44.0001Z" fill="#00E6C3"/>
<path d="M87.6681 28.1835H75.4577L73.1276 33.8222H66.8887L78.6099 7.52002H84.6218L96.3834 33.8222H89.9932L87.6631 28.1835H87.6681ZM85.7516 23.5636L81.5806 13.4916L77.4095 23.5636H85.7516Z" fill="white"/>
<path d="M112.972 14.6012C114.51 15.4637 115.721 16.6792 116.598 18.2477C117.476 19.8112 117.915 21.637 117.915 23.7149C117.915 25.7929 117.476 27.6186 116.598 29.1821C115.721 30.7456 114.515 31.9611 112.972 32.8286C111.429 33.6961 109.724 34.1248 107.843 34.1248C105.26 34.1248 103.233 33.3128 101.755 31.6837V41.1152H95.8945V13.6076H101.493V15.9378C102.945 14.1826 105.064 13.3101 107.843 13.3101C109.724 13.3101 111.434 13.7438 112.972 14.6063V14.6012ZM110.531 27.7901C111.494 26.7764 111.978 25.4146 111.978 23.7149C111.978 22.0152 111.494 20.6535 110.531 19.6397C109.568 18.626 108.332 18.1166 106.829 18.1166C105.326 18.1166 104.09 18.626 103.127 19.6397C102.164 20.6535 101.679 22.0152 101.679 23.7149C101.679 25.4146 102.164 26.7764 103.127 27.7901C104.09 28.8039 105.326 29.3133 106.829 29.3133C108.332 29.3133 109.568 28.8039 110.531 27.7901Z" fill="white"/>
<path d="M138.694 25.3692H123.402C123.679 26.62 124.33 27.6136 125.354 28.3399C126.383 29.0661 127.659 29.4293 129.187 29.4293C130.241 29.4293 131.174 29.2729 131.986 28.9602C132.798 28.6475 133.56 28.1532 134.261 27.4774L137.378 30.8616C135.471 33.0405 132.692 34.1299 129.036 34.1299C126.756 34.1299 124.739 33.686 122.983 32.7984C121.228 31.9107 119.877 30.675 118.923 29.0964C117.97 27.5178 117.496 25.7273 117.496 23.725C117.496 21.7227 117.965 19.9625 118.903 18.3687C119.841 16.78 121.133 15.5393 122.772 14.6466C124.411 13.7589 126.247 13.3101 128.274 13.3101C130.302 13.3101 132.042 13.7388 133.646 14.5861C135.249 15.4384 136.505 16.659 137.423 18.2477C138.336 19.8415 138.795 21.6874 138.795 23.7906C138.795 23.8662 138.755 24.3908 138.684 25.3692H138.694ZM124.981 18.8681C124.078 19.6195 123.528 20.6484 123.326 21.9497H133.282C133.081 20.6737 132.531 19.6498 131.628 18.8882C130.725 18.1267 129.626 17.7433 128.32 17.7433C127.013 17.7433 125.878 18.1216 124.976 18.8731L124.981 18.8681Z" fill="white"/>
<path d="M152.181 33.822L147.747 27.6235L143.163 33.822H136.772L144.55 23.6391L137.035 13.6074H143.612L147.894 19.5084L152.291 13.6074H158.53L151.015 23.4878L158.833 33.822H152.181Z" fill="white"/>
</svg>
