<svg width="368" height="207" viewBox="0 0 368 207" fill="none" xmlns="http://www.w3.org/2000/svg">
<g clip-path="url(#clip0_28_340)">
<rect width="368" height="207" fill="#141414"/>
<rect width="105" height="150" transform="translate(38)" fill="#0F0F0F"/>
<rect width="105" height="68" transform="translate(217 139)" fill="#0F0F0F"/>
<path d="M212.292 157.083C241.31 157.083 264.833 149.845 264.833 140.917C264.833 131.988 241.31 124.75 212.292 124.75C183.274 124.75 159.75 131.988 159.75 140.917C159.75 149.845 183.274 157.083 212.292 157.083Z" stroke="#6A00FF" stroke-width="12.125"/>
<path d="M264.833 177.292C264.833 186.221 241.31 193.458 212.292 193.458C183.273 193.458 159.75 186.221 159.75 177.292" stroke="#6A00FF" stroke-width="12.125"/>
<path d="M264.833 140.917V212.05C264.833 221.871 241.31 229.833 212.292 229.833C183.273 229.833 159.75 221.871 159.75 212.05V140.917" stroke="#6A00FF" stroke-width="12.125"/>
<path d="M155.709 100.5C184.727 100.5 208.25 93.262 208.25 84.3334C208.25 75.4048 184.727 68.1667 155.709 68.1667C126.691 68.1667 103.167 75.4048 103.167 84.3334C103.167 93.262 126.691 100.5 155.709 100.5Z" stroke="#3D3D3D" stroke-width="12.125"/>
<path d="M135.5 140.917C120.208 139.056 106.157 134.244 103.167 124.75M135.5 181.333C120.208 179.473 106.157 174.661 103.167 165.167" stroke="#3D3D3D" stroke-width="12.125" stroke-linecap="round"/>
<path d="M135.5 221.75C120.208 219.889 106.157 215.077 103.167 205.583V84.3333" stroke="#3D3D3D" stroke-width="12.125" stroke-linecap="round"/>
<path d="M208.25 100.5V84.3333" stroke="#3D3D3D" stroke-width="12.125" stroke-linecap="round"/>
</g>
<defs>
<clipPath id="clip0_28_340">
<rect width="368" height="207" fill="white"/>
</clipPath>
</defs>
</svg>
