<svg width="82" height="71" viewBox="0 0 82 71" fill="none" xmlns="http://www.w3.org/2000/svg">
<path d="M34.7744 15.2383L34.3252 15.2842C27.604 15.9735 23.0595 18.3723 20.5498 22.3877C18.3868 25.9442 17.1863 31.1741 16.9902 38.1289H34.5117V69.7832H0.5V45.7031C0.5 33.925 3.13783 23.9564 8.44141 15.8242L8.44238 15.8223C13.9496 7.47268 22.5596 2.43252 34.1992 0.668945L34.7744 0.582031V15.2383ZM80.624 15.2383L80.1748 15.2842C73.4538 15.9735 68.9101 18.3725 66.4004 22.3877C64.2373 25.9442 63.0359 31.174 62.8398 38.1289H80.3623V69.7832H46.3496V45.7031C46.3496 33.9251 48.9875 23.9564 54.291 15.8242L54.293 15.8223C59.8001 7.47275 68.4093 2.43257 80.0488 0.668945L80.624 0.582031V15.2383Z" fill="#242424" stroke="#292929"/>
</svg>
