<svg width="27" height="27" viewBox="0 0 27 27" fill="none" xmlns="http://www.w3.org/2000/svg">
<g clip-path="url(#clip0_56_84)">
<g clip-path="url(#clip1_56_84)">
<path d="M13.4922 24.7325C11.9558 24.7325 10.5037 24.4372 9.13587 23.8466C7.76807 23.256 6.57339 22.4503 5.55185 21.4296C4.53105 20.4088 3.72536 19.2145 3.13477 17.8466C2.54417 16.4788 2.24925 15.0267 2.25 13.4903C2.25 11.9351 2.5453 10.4781 3.13589 9.1193C3.72648 7.76049 4.53218 6.57106 5.55297 5.55102C6.57377 4.52947 7.76769 3.72378 9.13475 3.13394C10.5018 2.54409 11.9543 2.2488 13.4922 2.24805C15.0474 2.24805 16.5044 2.54334 17.8632 3.13394C19.222 3.72453 20.4115 4.53022 21.4315 5.55102C22.4531 6.57181 23.2587 7.76161 23.8486 9.12043C24.4384 10.4792 24.7337 11.9359 24.7345 13.4903V15.1204C24.7345 16.2259 24.3552 17.1676 23.5968 17.9456C22.8383 18.7235 21.9059 19.1122 20.7997 19.1114C20.1252 19.1114 19.4975 18.9615 18.9166 18.6617C18.3358 18.3619 17.858 17.9684 17.4832 17.4813C16.9773 17.9872 16.3822 18.3855 15.698 18.6763C15.0137 18.9671 14.2784 19.1122 13.4922 19.1114C11.9371 19.1114 10.6112 18.5632 9.51473 17.4667C8.41824 16.3702 7.87037 15.0447 7.87112 13.4903C7.87112 11.9351 8.41937 10.6093 9.51586 9.51278C10.6124 8.41629 11.9378 7.86842 13.4922 7.86916C15.0474 7.86916 16.3732 8.41741 17.4697 9.5139C18.5662 10.6104 19.1141 11.9359 19.1134 13.4903V15.1204C19.1134 15.6638 19.282 16.0899 19.6193 16.3986C19.9565 16.7074 20.35 16.8622 20.7997 16.863C21.2494 16.863 21.6429 16.7082 21.9801 16.3986C22.3174 16.0891 22.486 15.663 22.486 15.1204V13.4903C22.486 11.0357 21.6005 8.92294 19.8295 7.15191C18.0585 5.38088 15.946 4.49574 13.4922 4.49649C11.0377 4.49649 8.92489 5.38201 7.15386 7.15303C5.38284 8.92406 4.4977 11.0365 4.49845 13.4903C4.49845 15.9448 5.38396 18.0576 7.15499 19.8287C8.92602 21.5997 11.0384 22.4848 13.4922 22.4841H19.1134V24.7325H13.4922ZM13.4922 16.863C14.4291 16.863 15.2254 16.5351 15.8812 15.8793C16.537 15.2235 16.8649 14.4271 16.8649 13.4903C16.8649 12.5534 16.537 11.7571 15.8812 11.1013C15.2254 10.4455 14.4291 10.1176 13.4922 10.1176C12.5554 10.1176 11.7591 10.4455 11.1033 11.1013C10.4475 11.7571 10.1196 12.5534 10.1196 13.4903C10.1196 14.4271 10.4475 15.2235 11.1033 15.8793C11.7591 16.5351 12.5554 16.863 13.4922 16.863Z" fill="white"/>
</g>
</g>
<defs>
<clipPath id="clip0_56_84">
<rect width="26.9814" height="26.9814" fill="white"/>
</clipPath>
<clipPath id="clip1_56_84">
<rect width="26.9814" height="26.9814" fill="white"/>
</clipPath>
</defs>
</svg>
