<svg width="27" height="27" viewBox="0 0 27 27" fill="none" xmlns="http://www.w3.org/2000/svg">
<g clip-path="url(#clip0_56_79)">
<g clip-path="url(#clip1_56_79)">
<path d="M23.2807 4.1073C23.2807 4.1073 25.4645 3.2557 25.2818 5.32371C25.2216 6.1753 24.6758 9.15618 24.2509 12.3799L22.795 21.9302C22.795 21.9302 22.6736 23.3293 21.5814 23.5727C20.4898 23.8155 18.8518 22.7211 18.5482 22.4777C18.3054 22.295 13.9985 19.5575 12.4819 18.2197C12.057 17.8543 11.5713 17.1247 12.5426 16.2731L18.9119 10.1899C19.6399 9.46029 20.3678 7.75709 17.3346 9.8251L8.84113 15.6036C8.84113 15.6036 7.87036 16.2124 6.05081 15.6649L2.10703 14.4479C2.10703 14.4479 0.65116 13.5356 3.1385 12.6233C9.20538 9.76439 16.6674 6.84478 23.2795 4.1073H23.2807Z" fill="white"/>
</g>
</g>
<defs>
<clipPath id="clip0_56_79">
<rect width="26.9814" height="26.9814" fill="white"/>
</clipPath>
<clipPath id="clip1_56_79">
<rect width="26.9814" height="26.9814" fill="white"/>
</clipPath>
</defs>
</svg>
