<svg width="298" height="226" viewBox="0 0 298 226" fill="none" xmlns="http://www.w3.org/2000/svg">
<mask id="mask0_67_326" style="mask-type:alpha" maskUnits="userSpaceOnUse" x="0" y="-36" width="298" height="298">
<rect y="-36" width="298" height="298" fill="url(#paint0_radial_67_326)"/>
</mask>
<g mask="url(#mask0_67_326)">
<path fill-rule="evenodd" clip-rule="evenodd" d="M280.292 249.997L276.42 250.963C276.318 250.555 276.215 250.147 276.11 249.74L279.975 248.744C280.082 249.161 280.188 249.578 280.292 249.997ZM276.266 236.367L272.49 237.661C272.354 237.262 272.216 236.865 272.076 236.469L275.842 235.145C275.984 235.551 276.126 235.959 276.266 236.367ZM271.078 223.135L267.429 224.753C267.259 224.368 267.087 223.985 266.913 223.602L270.548 221.955C270.726 222.347 270.903 222.741 271.078 223.135ZM264.745 210.411L261.255 212.348C261.051 211.98 260.845 211.613 260.638 211.248L264.112 209.283C264.324 209.658 264.535 210.034 264.745 210.411ZM257.291 198.31C257.048 197.954 256.803 197.598 256.558 197.244L253.278 199.519C253.518 199.864 253.756 200.21 253.992 200.557L257.291 198.31ZM248.748 186.951L245.676 189.498C245.408 189.175 245.139 188.853 244.868 188.533L247.919 185.959C248.196 186.289 248.473 186.619 248.748 186.951ZM239.16 176.461L236.349 179.294C236.052 178.999 235.753 178.705 235.453 178.413L238.238 175.554C238.546 175.855 238.854 176.157 239.16 176.461ZM228.581 166.971L226.07 170.073C225.745 169.81 225.419 169.548 225.091 169.288L227.573 166.163C227.91 166.43 228.246 166.7 228.581 166.971ZM217.084 158.619L214.912 161.967C214.561 161.74 214.21 161.514 213.857 161.29L215.996 157.921C216.36 158.152 216.722 158.384 217.084 158.619ZM204.761 151.542L202.966 155.107C202.594 154.919 202.22 154.733 201.845 154.549L203.604 150.967C203.991 151.157 204.377 151.348 204.761 151.542ZM191.732 145.872L190.349 149.616C189.958 149.471 189.566 149.329 189.173 149.188L190.517 145.43C190.923 145.576 191.328 145.723 191.732 145.872ZM178.142 141.723L177.2 145.601C176.794 145.502 176.388 145.406 175.981 145.312L176.883 141.424C177.303 141.521 177.723 141.621 178.142 141.723ZM164.162 139.178L163.678 143.139C163.264 143.089 162.85 143.04 162.435 142.994L162.877 139.028C163.306 139.075 163.734 139.125 164.162 139.178ZM149.98 138.279L149.959 142.27C149.75 142.268 149.54 142.268 149.331 142.268C149.121 142.268 148.912 142.268 148.702 142.27L148.681 138.279C148.897 138.277 149.114 138.277 149.331 138.277C149.547 138.277 149.764 138.277 149.98 138.279ZM135.784 139.028L136.226 142.994C135.812 143.04 135.397 143.089 134.983 143.139L134.499 139.178C134.927 139.125 135.355 139.075 135.784 139.028ZM121.779 141.424L122.68 145.312C122.273 145.406 121.867 145.502 121.462 145.601L120.519 141.723C120.938 141.621 121.358 141.521 121.779 141.424ZM108.144 145.43L109.488 149.188C109.095 149.329 108.703 149.471 108.312 149.616L106.929 145.872C107.333 145.723 107.738 145.576 108.144 145.43ZM95.0571 150.967L96.816 154.549C96.4415 154.733 96.0678 154.919 95.695 155.107L93.9 151.542C94.2847 151.348 94.6704 151.157 95.0571 150.967ZM82.6651 157.921L84.8044 161.29C84.4518 161.514 84.1002 161.74 83.7495 161.967L81.5776 158.619C81.939 158.384 82.3015 158.152 82.6651 157.921ZM71.0888 166.163C70.7515 166.43 70.4153 166.7 70.0803 166.971L72.591 170.073C72.9164 169.81 73.2428 169.548 73.5704 169.288L71.0888 166.163ZM60.4235 175.554L63.2085 178.413C62.9085 178.705 62.6097 178.999 62.3121 179.294L59.5014 176.461C59.8075 176.157 60.1149 175.855 60.4235 175.554ZM50.7428 185.959L53.7932 188.533C53.5229 188.853 53.2537 189.175 52.9858 189.498L49.9131 186.951C50.1884 186.619 50.465 186.289 50.7428 185.959ZM42.1035 197.244L45.3829 199.519C45.1437 199.864 44.9058 200.21 44.6692 200.557L41.3707 198.31C41.6136 197.954 41.8579 197.598 42.1035 197.244ZM34.5491 209.283L38.0229 211.248C37.8161 211.613 37.6106 211.98 37.4065 212.348L33.9167 210.411C34.1261 210.034 34.3369 209.658 34.5491 209.283ZM28.1129 221.955L31.7481 223.602C31.5747 223.985 31.4026 224.368 31.232 224.753L27.5837 223.135C27.7586 222.741 27.935 222.347 28.1129 221.955ZM22.8197 235.145L26.5849 236.469C26.4455 236.865 26.3076 237.262 26.1711 237.661L22.3956 236.367C22.5355 235.959 22.6769 235.551 22.8197 235.145ZM18.6868 248.744L22.5516 249.74C22.4467 250.147 22.3433 250.555 22.2415 250.963L18.3691 249.997C18.4735 249.578 18.5794 249.161 18.6868 248.744Z" fill="#535354"/>
<g filter="url(#filter0_i_67_326)">
<path d="M77.1583 120.982C77.1583 132.738 67.6284 142.268 55.8726 142.268C44.1169 142.268 34.5869 132.738 34.5869 120.982C34.5869 109.226 44.1169 99.6964 55.8726 99.6964C67.6284 99.6964 77.1583 109.226 77.1583 120.982Z" fill="#08090A"/>
<path d="M120.395 98.366C120.395 110.122 110.865 119.652 99.1092 119.652C87.3535 119.652 77.8235 110.122 77.8235 98.366C77.8235 86.6103 87.3535 77.0803 99.1092 77.0803C110.865 77.0803 120.395 86.6103 120.395 98.366Z" fill="#08090A"/>
</g>
<path d="M55.873 100.029C67.4448 100.029 76.8259 109.41 76.8262 120.982C76.8262 132.554 67.4449 141.935 55.873 141.935C44.301 141.935 34.9199 132.554 34.9199 120.982C34.9201 109.41 44.3011 100.029 55.873 100.029ZM99.1094 77.4133C110.681 77.4134 120.062 86.7944 120.062 98.3665C120.062 109.938 110.681 119.32 99.1094 119.32C87.5374 119.32 78.1565 109.938 78.1562 98.3665C78.1562 86.7944 87.5373 77.4133 99.1094 77.4133Z" stroke="url(#paint1_linear_67_326)" stroke-width="0.665179"/>
<g filter="url(#filter1_i_67_326)">
<path d="M222.167 120.982C222.167 132.738 231.697 142.268 243.453 142.268C255.209 142.268 264.739 132.738 264.739 120.982C264.739 109.226 255.209 99.6964 243.453 99.6964C231.697 99.6964 222.167 109.226 222.167 120.982Z" fill="#08090A"/>
<path d="M178.266 98.366C178.266 110.122 187.796 119.652 199.551 119.652C211.307 119.652 220.837 110.122 220.837 98.366C220.837 86.6103 211.307 77.0803 199.551 77.0803C187.796 77.0803 178.266 86.6103 178.266 98.366Z" fill="#08090A"/>
</g>
<path d="M243.453 100.029C255.025 100.029 264.406 109.41 264.406 120.982C264.406 132.554 255.025 141.935 243.453 141.935C231.881 141.935 222.5 132.554 222.5 120.982C222.5 109.41 231.881 100.029 243.453 100.029ZM199.552 77.4133C211.124 77.4136 220.505 86.7945 220.505 98.3665C220.505 109.938 211.124 119.319 199.552 119.32C187.98 119.32 178.599 109.938 178.599 98.3665C178.599 86.7944 187.98 77.4133 199.552 77.4133Z" stroke="url(#paint2_linear_67_326)" stroke-width="0.665179"/>
<g filter="url(#filter2_iii_67_326)">
<rect x="128.378" y="59.7856" width="42.5714" height="63.8571" rx="21.2857" fill="#08090A"/>
</g>
<rect x="128.711" y="60.1182" width="41.9062" height="63.192" rx="20.9531" stroke="url(#paint3_linear_67_326)" stroke-width="0.665179"/>
<rect opacity="0.3" x="125.052" y="56.4598" width="49.2232" height="71.1741" rx="24.6116" stroke="#8C8C8D" stroke-width="1.33036"/>
</g>
<g filter="url(#filter3_i_67_326)">
<path d="M107 202.5C107 179.028 126.028 160 149.5 160C172.972 160 192 179.028 192 202.5V228.689C192 232.727 188.727 236 184.689 236H114.311C110.273 236 107 232.727 107 228.689V202.5Z" fill="#08090A"/>
</g>
<path d="M165.669 206H151.96L138.248 183H151.96L165.669 206Z" fill="white"/>
<path d="M142.257 206C146.818 206 150.514 202.303 150.514 197.743C150.514 193.182 146.818 189.486 142.257 189.486C137.697 189.486 134 193.182 134 197.743C134 202.303 137.697 206 142.257 206Z" fill="white"/>
<path d="M149.5 96.625C149.683 96.625 149.854 96.5385 150.194 96.3653L152.932 94.9737C154.144 94.358 154.75 94.0501 154.75 93.5625V87.4375M149.5 96.625C149.317 96.625 149.146 96.5385 148.806 96.3653L146.068 94.9737C144.856 94.358 144.25 94.0501 144.25 93.5625V87.4375M149.5 96.625V90.5M154.75 87.4375C154.75 86.9499 154.144 86.642 152.932 86.0263L150.194 84.6347C149.854 84.4616 149.683 84.375 149.5 84.375C149.317 84.375 149.146 84.4616 148.806 84.6347L146.068 86.0263C144.856 86.642 144.25 86.9499 144.25 87.4375M154.75 87.4375C154.75 87.9251 154.144 88.233 152.932 88.8487L150.194 90.2403C149.854 90.4135 149.683 90.5 149.5 90.5M144.25 87.4375C144.25 87.9251 144.856 88.233 146.068 88.8487L148.806 90.2403C149.146 90.4135 149.317 90.5 149.5 90.5" stroke="#999999" stroke-width="1.3125" stroke-linejoin="round"/>
<path d="M150.541 98.879L154.649 96.8911C156.466 96.0114 157.375 95.5715 157.375 94.875V86.125C157.375 85.4285 156.466 84.9886 154.649 84.1089L150.541 82.121C150.03 81.8737 149.775 81.75 149.5 81.75C149.225 81.75 148.97 81.8737 148.459 82.121L144.351 84.1089C142.534 84.9886 141.625 85.4285 141.625 86.125V94.875C141.625 95.5715 142.534 96.0114 144.351 96.891L148.459 98.879C148.97 99.1264 149.225 99.25 149.5 99.25C149.775 99.25 150.03 99.1264 150.541 98.879Z" stroke="#999999" stroke-width="1.3125" stroke-linejoin="round"/>
<path d="M103.032 101.031C103.161 100.902 103.222 100.721 103.343 100.361L104.315 97.4603C104.745 96.1771 104.96 95.5354 104.623 95.1976L100.38 90.955M103.032 101.031C102.902 101.161 102.722 101.221 102.361 101.342L99.4606 102.315C98.1774 102.745 97.5357 102.96 97.1979 102.622L92.9553 98.3796M103.032 101.031L98.7889 96.7886M100.38 90.955C100.042 90.6173 99.4005 90.8324 98.1172 91.2627L95.2171 92.235C94.8563 92.356 94.6759 92.4164 94.5463 92.546C94.4167 92.6755 94.3563 92.8559 94.2353 93.2167L93.263 96.1169C92.8327 97.4002 92.6176 98.0419 92.9553 98.3796M100.38 90.955C100.718 91.2927 100.503 91.9344 100.072 93.2177L99.0999 96.1179C98.979 96.4787 98.9185 96.6591 98.7889 96.7886M92.9553 98.3796C93.293 98.7173 93.9347 98.5022 95.218 98.0719L98.1182 97.0996C98.479 96.9786 98.6594 96.9182 98.7889 96.7886" stroke="#595959" stroke-width="1.125" stroke-linejoin="round"/>
<path d="M107.805 95.1977L104.888 95.4629" stroke="#595959" stroke-width="1.125" stroke-linecap="round" stroke-linejoin="round"/>
<path d="M92.4248 90.4248L94.5461 92.5461" stroke="#595959" stroke-width="1.125" stroke-linecap="round" stroke-linejoin="round"/>
<path d="M97.1979 105.804L97.4631 102.888" stroke="#595959" stroke-width="1.125" stroke-linecap="round" stroke-linejoin="round"/>
<path d="M60.0316 124.031C60.1611 123.902 60.2216 123.721 60.3426 123.361L61.3149 120.46C61.7452 119.177 61.9603 118.535 61.6226 118.198L57.3799 113.955M60.0316 124.031C59.902 124.161 59.7216 124.221 59.3608 124.342L56.4606 125.315C55.1774 125.745 54.5357 125.96 54.1979 125.622L49.9553 121.38M60.0316 124.031L55.7889 119.789M57.3799 113.955C57.0422 113.617 56.4005 113.832 55.1172 114.263L52.2171 115.235C51.8563 115.356 51.6759 115.416 51.5463 115.546C51.4167 115.676 51.3563 115.856 51.2353 116.217L50.263 119.117C49.8327 120.4 49.6176 121.042 49.9553 121.38M57.3799 113.955C57.7176 114.293 57.5025 114.934 57.0722 116.218L56.0999 119.118C55.979 119.479 55.9185 119.659 55.7889 119.789M49.9553 121.38C50.293 121.717 50.9347 121.502 52.218 121.072L55.1182 120.1C55.479 119.979 55.6594 119.918 55.7889 119.789" stroke="#292929" stroke-width="1.125" stroke-linejoin="round"/>
<path d="M64.8045 118.198L61.8877 118.463" stroke="#292929" stroke-width="1.125" stroke-linecap="round" stroke-linejoin="round"/>
<path d="M49.4248 113.425L51.5461 115.546" stroke="#292929" stroke-width="1.125" stroke-linecap="round" stroke-linejoin="round"/>
<path d="M54.1979 128.804L54.4631 125.888" stroke="#292929" stroke-width="1.125" stroke-linecap="round" stroke-linejoin="round"/>
<path d="M197.25 102.495C197.408 102.587 197.598 102.599 197.978 102.622L201.031 102.811C202.382 102.894 203.058 102.936 203.296 102.522L206.296 97.3261M197.25 102.495C197.091 102.404 196.986 102.245 196.776 101.928L195.086 99.3782C194.338 98.25 193.964 97.6859 194.203 97.2723L197.203 92.0761M197.25 102.495L200.25 97.2992M206.296 97.3261C206.535 96.9125 206.161 96.3483 205.414 95.2201L203.724 92.6704C203.514 92.3532 203.408 92.1946 203.25 92.103C203.091 92.0114 202.901 91.9997 202.521 91.9762L199.468 91.7876C198.117 91.7042 197.442 91.6625 197.203 92.0761M206.296 97.3261C206.058 97.7397 205.382 97.698 204.031 97.6145L200.978 97.426C200.598 97.4025 200.408 97.3908 200.25 97.2992M197.203 92.0761C196.964 92.4897 197.338 93.0539 198.086 94.1821L199.776 96.7318C199.986 97.0489 200.091 97.2076 200.25 97.2992" stroke="#595959" stroke-width="1.125" stroke-linejoin="round"/>
<path d="M204.12 105.596L203.109 102.847" stroke="#595959" stroke-width="1.125" stroke-linecap="round" stroke-linejoin="round"/>
<path d="M204.75 89.5049L203.25 92.103" stroke="#595959" stroke-width="1.125" stroke-linecap="round" stroke-linejoin="round"/>
<path d="M191.13 98.0957L194.016 97.5969" stroke="#595959" stroke-width="1.125" stroke-linecap="round" stroke-linejoin="round"/>
<path d="M240.547 126.017C240.705 126.109 240.895 126.121 241.275 126.144L244.328 126.333C245.679 126.416 246.354 126.458 246.593 126.044L249.593 120.848M240.547 126.017C240.388 125.926 240.283 125.767 240.073 125.45L238.383 122.9C237.635 121.772 237.261 121.208 237.5 120.794L240.5 115.598M240.547 126.017L243.547 120.821M249.593 120.848C249.832 120.434 249.458 119.87 248.71 118.742L247.021 116.192C246.81 115.875 246.705 115.717 246.547 115.625C246.388 115.533 246.198 115.522 245.818 115.498L242.765 115.31C241.414 115.226 240.739 115.184 240.5 115.598M249.593 120.848C249.354 121.262 248.679 121.22 247.328 121.136L244.275 120.948C243.895 120.924 243.705 120.913 243.547 120.821M240.5 115.598C240.261 116.012 240.635 116.576 241.383 117.704L243.073 120.254C243.283 120.571 243.388 120.73 243.547 120.821" stroke="#292929" stroke-width="1.125" stroke-linejoin="round"/>
<defs>
<filter id="filter0_i_67_326" x="34.5869" y="77.0803" width="85.8076" height="67.8482" filterUnits="userSpaceOnUse" color-interpolation-filters="sRGB">
<feFlood flood-opacity="0" result="BackgroundImageFix"/>
<feBlend mode="normal" in="SourceGraphic" in2="BackgroundImageFix" result="shape"/>
<feColorMatrix in="SourceAlpha" type="matrix" values="0 0 0 0 0 0 0 0 0 0 0 0 0 0 0 0 0 0 127 0" result="hardAlpha"/>
<feOffset dy="2.66071"/>
<feGaussianBlur stdDeviation="12.4056"/>
<feComposite in2="hardAlpha" operator="arithmetic" k2="-1" k3="1"/>
<feColorMatrix type="matrix" values="0 0 0 0 1 0 0 0 0 1 0 0 0 0 1 0 0 0 0.1 0"/>
<feBlend mode="normal" in2="shape" result="effect1_innerShadow_67_326"/>
</filter>
<filter id="filter1_i_67_326" x="178.266" y="77.0803" width="86.4736" height="67.8482" filterUnits="userSpaceOnUse" color-interpolation-filters="sRGB">
<feFlood flood-opacity="0" result="BackgroundImageFix"/>
<feBlend mode="normal" in="SourceGraphic" in2="BackgroundImageFix" result="shape"/>
<feColorMatrix in="SourceAlpha" type="matrix" values="0 0 0 0 0 0 0 0 0 0 0 0 0 0 0 0 0 0 127 0" result="hardAlpha"/>
<feOffset dy="2.66071"/>
<feGaussianBlur stdDeviation="12.4056"/>
<feComposite in2="hardAlpha" operator="arithmetic" k2="-1" k3="1"/>
<feColorMatrix type="matrix" values="0 0 0 0 1 0 0 0 0 1 0 0 0 0 1 0 0 0 0.1 0"/>
<feBlend mode="normal" in2="shape" result="effect1_innerShadow_67_326"/>
</filter>
<filter id="filter2_iii_67_326" x="128.378" y="59.7856" width="42.5713" height="70.509" filterUnits="userSpaceOnUse" color-interpolation-filters="sRGB">
<feFlood flood-opacity="0" result="BackgroundImageFix"/>
<feBlend mode="normal" in="SourceGraphic" in2="BackgroundImageFix" result="shape"/>
<feColorMatrix in="SourceAlpha" type="matrix" values="0 0 0 0 0 0 0 0 0 0 0 0 0 0 0 0 0 0 127 0" result="hardAlpha"/>
<feOffset dy="2.66071"/>
<feGaussianBlur stdDeviation="12.4056"/>
<feComposite in2="hardAlpha" operator="arithmetic" k2="-1" k3="1"/>
<feColorMatrix type="matrix" values="0 0 0 0 1 0 0 0 0 1 0 0 0 0 1 0 0 0 0.1 0"/>
<feBlend mode="normal" in2="shape" result="effect1_innerShadow_67_326"/>
<feColorMatrix in="SourceAlpha" type="matrix" values="0 0 0 0 0 0 0 0 0 0 0 0 0 0 0 0 0 0 127 0" result="hardAlpha"/>
<feOffset dy="6.65179"/>
<feGaussianBlur stdDeviation="3.32589"/>
<feComposite in2="hardAlpha" operator="arithmetic" k2="-1" k3="1"/>
<feColorMatrix type="matrix" values="0 0 0 0 1 0 0 0 0 1 0 0 0 0 1 0 0 0 0.05 0"/>
<feBlend mode="normal" in2="effect1_innerShadow_67_326" result="effect2_innerShadow_67_326"/>
<feColorMatrix in="SourceAlpha" type="matrix" values="0 0 0 0 0 0 0 0 0 0 0 0 0 0 0 0 0 0 127 0" result="hardAlpha"/>
<feOffset dy="1.33036"/>
<feGaussianBlur stdDeviation="0.997768"/>
<feComposite in2="hardAlpha" operator="arithmetic" k2="-1" k3="1"/>
<feColorMatrix type="matrix" values="0 0 0 0 1 0 0 0 0 1 0 0 0 0 1 0 0 0 0.2 0"/>
<feBlend mode="normal" in2="effect2_innerShadow_67_326" result="effect3_innerShadow_67_326"/>
</filter>
<filter id="filter3_i_67_326" x="107" y="160" width="85" height="78.6607" filterUnits="userSpaceOnUse" color-interpolation-filters="sRGB">
<feFlood flood-opacity="0" result="BackgroundImageFix"/>
<feBlend mode="normal" in="SourceGraphic" in2="BackgroundImageFix" result="shape"/>
<feColorMatrix in="SourceAlpha" type="matrix" values="0 0 0 0 0 0 0 0 0 0 0 0 0 0 0 0 0 0 127 0" result="hardAlpha"/>
<feOffset dy="2.66071"/>
<feGaussianBlur stdDeviation="12.4056"/>
<feComposite in2="hardAlpha" operator="arithmetic" k2="-1" k3="1"/>
<feColorMatrix type="matrix" values="0 0 0 0 1 0 0 0 0 1 0 0 0 0 1 0 0 0 0.1 0"/>
<feBlend mode="normal" in2="shape" result="effect1_innerShadow_67_326"/>
</filter>
<radialGradient id="paint0_radial_67_326" cx="0" cy="0" r="1" gradientUnits="userSpaceOnUse" gradientTransform="translate(149 17.8795) rotate(90) scale(244.121 207.186)">
<stop stop-color="#08090A"/>
<stop offset="1" stop-color="#08090A" stop-opacity="0"/>
</radialGradient>
<linearGradient id="paint1_linear_67_326" x1="99.1092" y1="77.0803" x2="109.087" y2="99.3638" gradientUnits="userSpaceOnUse">
<stop stop-color="white" stop-opacity="0.5"/>
<stop offset="1" stop-color="#08090A" stop-opacity="0"/>
</linearGradient>
<linearGradient id="paint2_linear_67_326" x1="199.551" y1="77.0803" x2="189.574" y2="99.3638" gradientUnits="userSpaceOnUse">
<stop stop-color="white" stop-opacity="0.5"/>
<stop offset="1" stop-color="#08090A" stop-opacity="0"/>
</linearGradient>
<linearGradient id="paint3_linear_67_326" x1="149.664" y1="59.7856" x2="149.664" y2="123.643" gradientUnits="userSpaceOnUse">
<stop stop-color="#00E0CD"/>
<stop offset="1" stop-color="#080809" stop-opacity="0"/>
</linearGradient>
</defs>
</svg>
